<svg width="1327" height="1067" viewBox="0 0 1327 1067" fill="none" xmlns="http://www.w3.org/2000/svg">
    <path d="M278.101 1204.77C297.555 1237.28 298.999 1287.24 256.424 1298.79C214.874 1309.94 176.48 1289.36 170.746 1252.79C158.738 1175.15 258.647 1172.26 278.101 1204.77Z" fill="white"/>
    <path d="M1392.29 43.1495C1383.56 66.4475 1407.75 95.9773 1468.06 109.372C1528.77 123.792 1539.99 110.113 1546.43 90.0389C1552.86 69.9651 1553.67 32.0707 1497.36 23.0198C1441.05 13.9688 1401.65 18.435 1392.29 43.1495Z" fill="white"/>
    <path d="M397.798 358.047C470.902 361.864 485.486 418.55 475.045 434.28C465.238 448.593 434.021 425.269 408.241 431.583C382.07 436.872 349.167 455.3 330.267 451.942C271.125 441.623 291.925 351.466 397.798 358.047Z" fill="white"/>
    <path d="M445.584 492.504C703.237 515.163 881.805 321.344 962.772 241.115C1043.35 159.861 1355.35 7.91276 1569.8 222.068C1784.24 436.223 1645.8 1039.92 1383.89 1169.23C1121.98 1298.54 483.266 1323.81 243.336 1122.9C-84.0939 849.672 77.4185 460.337 445.584 492.504Z" fill="white"/>
</svg>
