<svg width="13" height="22" viewBox="0 0 13 22" fill="none" xmlns="http://www.w3.org/2000/svg">
    <path d="M11.9756 0.557124L9.23955 0.552734C6.1657 0.552734 4.17924 2.59078 4.17924 5.74519V8.13926H1.42826C1.19055 8.13926 0.998047 8.33197 0.998047 8.56969V12.0384C0.998047 12.2761 1.19077 12.4686 1.42826 12.4686H4.17924V21.2214C4.17924 21.4591 4.37174 21.6516 4.60945 21.6516H8.19869C8.43641 21.6516 8.62891 21.4589 8.62891 21.2214V12.4686H11.8454C12.0832 12.4686 12.2757 12.2761 12.2757 12.0384L12.277 8.56969C12.277 8.45555 12.2315 8.34624 12.151 8.26547C12.0704 8.18469 11.9607 8.13926 11.8465 8.13926H8.62891V6.10977C8.62891 5.13432 8.86135 4.63913 10.132 4.63913L11.9752 4.63848C12.2127 4.63848 12.4052 4.44576 12.4052 4.20826V0.987341C12.4052 0.750063 12.2129 0.557563 11.9756 0.557124Z" fill="white"/>
</svg>
