<svg width="23" height="23" viewBox="0 0 23 23" fill="none" xmlns="http://www.w3.org/2000/svg">
    <path d="M16.5382 0.473206H6.60074C3.22603 0.473206 0.480469 3.21889 0.480469 6.59361V16.5311C0.480469 19.9059 3.22603 22.6515 6.60074 22.6515H16.5382C19.9132 22.6515 22.6588 19.9058 22.6588 16.5311V6.59361C22.6589 3.21889 19.9132 0.473206 16.5382 0.473206ZM20.6911 16.5311C20.6911 18.8209 18.8282 20.6837 16.5383 20.6837H6.60074C4.31105 20.6839 2.44823 18.8209 2.44823 16.5311V6.59361C2.44823 4.30392 4.31105 2.44097 6.60074 2.44097H16.5382C18.828 2.44097 20.691 4.30392 20.691 6.59361V16.5311H20.6911Z" fill="white"/>
    <path d="M11.5703 5.84802C8.41907 5.84802 5.85547 8.41163 5.85547 11.5628C5.85547 14.7139 8.41907 17.2773 11.5703 17.2773C14.7214 17.2773 17.285 14.7139 17.285 11.5628C17.285 8.41163 14.7214 5.84802 11.5703 5.84802ZM11.5703 15.3094C9.50423 15.3094 7.82323 13.6287 7.82323 11.5627C7.82323 9.49652 9.5041 7.81566 11.5703 7.81566C13.6364 7.81566 15.3173 9.49652 15.3173 11.5627C15.3173 13.6287 13.6363 15.3094 11.5703 15.3094Z" fill="white"/>
    <path d="M17.5231 4.1792C17.144 4.1792 16.7716 4.33269 16.5038 4.60161C16.2347 4.86923 16.0801 5.24179 16.0801 5.62223C16.0801 6.00148 16.2349 6.37391 16.5038 6.64284C16.7714 6.91046 17.144 7.06525 17.5231 7.06525C17.9035 7.06525 18.2748 6.91046 18.5437 6.64284C18.8126 6.37391 18.9661 6.00135 18.9661 5.62223C18.9661 5.24179 18.8126 4.86923 18.5437 4.60161C18.2761 4.33269 17.9035 4.1792 17.5231 4.1792Z" fill="white"/>
</svg>
