<svg width="92" height="122" viewBox="0 0 92 122" fill="none" xmlns="http://www.w3.org/2000/svg">
    <path d="M91.0686 45.5343C91.0686 70.6822 45.5343 121.5 45.5343 121.5C45.5343 121.5 0 70.6822 0 45.5343C0 20.3864 20.3864 0 45.5343 0C70.6822 0 91.0686 20.3864 91.0686 45.5343Z" fill="url(#paint0_linear)"/>
    <path d="M74.4995 31.8935C75.8366 29.9146 76.104 27.4009 75.2483 25.1011C74.1251 22.1595 71.4509 20.3411 68.2419 20.2876H68.028H67.814C63.3749 20.7689 59.5775 23.1222 57.2777 26.4382C55.7267 25.2616 53.6943 24.6198 51.341 24.6198C48.6134 24.6198 45.9927 25.529 43.9068 27.08C43.8533 26.5987 43.7463 26.1173 43.5859 25.5825V25.4755C42.7301 22.9083 40.4838 21.3038 37.5957 21.3038C36.9004 21.3038 36.1516 21.4107 35.4564 21.5712C33.1031 22.0525 31.7125 23.7105 31.659 26.1173C31.2311 25.529 30.6963 24.9407 30.108 24.3523C28.6639 23.0152 27.0594 22.32 25.4014 22.32C24.7061 22.32 24.0108 22.4269 23.3155 22.6943C23.2086 22.7478 23.0481 22.8013 22.8877 22.8548C19.1973 24.0849 17.4323 26.1708 17.6997 29.1659C17.9672 32.054 16.737 35.6374 15.5069 39.0604C14.7047 41.3602 13.9024 43.66 13.421 46.0133C13.3141 46.4411 13.2071 46.8155 13.1536 47.1899V47.2434C12.9397 48.3131 13.1536 49.4362 13.8489 50.292C14.5442 51.1477 15.5604 51.6291 16.6301 51.6825H16.8975C17.1649 51.6825 17.4323 51.6825 17.6463 51.6825C17.9672 51.6825 18.2346 51.6825 18.502 51.6291C18.502 51.95 18.502 52.3243 18.502 52.6452V53.608V55.159C18.502 55.4799 18.502 55.8543 18.502 56.2287V56.8705C18.5555 57.7262 18.6625 58.5285 18.8764 59.2772C19.7321 62.4863 22.5668 64.5186 26.0967 64.5186C27.4873 64.5186 28.8244 64.1977 30.108 63.6094C31.766 62.9676 33.0496 61.791 34.0123 60.3469C35.2424 61.1492 36.7934 61.684 38.5584 61.791C38.7189 61.791 38.8258 61.791 38.9863 61.791C41.2326 61.791 43.372 60.8817 45.1904 59.2237C45.2439 59.2772 45.3509 59.3307 45.4043 59.3842C45.9392 59.6516 46.474 59.8121 47.1158 59.8121C48.132 59.8121 49.8435 59.3842 50.7527 58.9563C52.6781 58.1006 53.9083 56.4961 54.2292 54.5707C54.2826 54.6776 54.3361 54.7311 54.3896 54.8381C55.5128 56.71 57.3847 57.7262 59.631 57.7262C61.182 57.7262 62.7866 57.1914 64.0702 56.2287C64.605 56.4426 65.2468 56.603 65.9956 56.603C66.3165 56.603 66.6374 56.5496 66.9048 56.4961L67.0653 56.4426C68.8837 56.0147 71.237 55.052 72.0927 52.8592C72.6276 51.5756 72.4671 50.078 71.7183 48.8479C71.5579 48.5805 71.3974 48.1526 71.4509 47.1899C71.5579 45.4249 71.6114 43.6065 71.6649 41.8415C71.6649 41.1462 71.6114 40.5044 71.3974 39.9161C72.7345 38.7395 73.8577 37.2419 74.6065 35.5839C75.0878 34.5142 75.0878 33.1237 74.553 32.1075C74.6065 32.054 74.553 31.947 74.4995 31.8935Z" fill="#C1272D"/>
    <path d="M33.905 43.0717C33.7445 42.1624 33.3166 40.7719 32.9957 39.8626C32.1935 37.4024 31.4447 34.8886 30.8564 32.6423C30.2146 30.1286 29.6263 28.3636 27.8613 26.7056C26.8986 25.7964 25.6685 25.2081 24.4383 25.6894C23.3152 26.1173 20.641 26.5987 20.8549 28.8985C21.3898 34.5677 17.6459 40.9858 16.5227 46.8155C16.4158 47.1899 16.3088 47.5643 16.2553 47.9922C16.2018 48.2596 16.4158 48.527 16.6832 48.527C17.325 48.527 17.8598 48.5805 18.4482 48.527C20.4805 48.3131 22.0316 47.4038 22.6199 45.318C22.6199 45.2645 22.6734 45.1575 22.6734 45.1575C22.8873 44.9436 23.0478 44.6762 23.3152 44.6227C24.4918 44.3553 25.7219 44.1948 26.8986 43.9809C27.2195 43.9274 27.4869 44.1413 27.5404 44.4622C27.5939 44.8901 27.7008 45.2645 27.8078 45.6389C28.0752 46.6551 28.5031 46.976 29.5193 46.7085C30.589 46.4411 31.6052 46.0133 32.6214 45.5854C33.7445 45.104 34.1189 44.1413 33.905 43.0717ZM26.2568 39.5417C25.5615 40.0231 24.7592 40.1835 23.7965 39.9696C24.0639 37.7768 24.2779 35.6374 24.9732 33.605C25.0267 33.605 25.0801 33.605 25.1871 33.605C25.2941 33.8724 25.4545 34.1399 25.508 34.4073C25.8289 35.9048 26.1498 37.4559 26.4707 38.9534C26.4707 39.1139 26.3638 39.4348 26.2568 39.5417Z" fill="white"/>
    <path d="M47.0623 43.446C52.5176 44.3553 57.5451 39.2208 57.5986 33.712C57.3846 26.1173 47.6506 26.4382 44.0672 31.3587C40.6442 36.1188 41.393 42.0555 47.0623 43.446ZM47.9715 33.5515C48.2389 32.6958 48.8272 31.947 49.576 31.4657C50.4317 30.9308 51.2875 31.1982 51.5549 32.161C51.7688 33.0167 51.8223 33.9259 51.9293 34.7817C51.8758 36.1722 51.7688 37.5628 51.0201 38.7929C50.5387 39.5952 49.3621 40.5579 48.2924 39.3813C47.5436 37.9372 47.2762 35.6909 47.9715 33.5515Z" fill="white"/>
    <path d="M71.1296 33.7655C69.4716 34.9421 66.53 36.921 64.3906 34.9421C64.0697 34.5677 64.1232 34.3003 64.6046 34.1399C66.4765 33.6585 69.632 32.8563 71.1296 30.9843C74.0177 28.3101 72.3597 23.5501 68.2414 23.4431C63.214 24.0314 58.6144 27.7218 58.133 33.1772C58.0795 42.9112 68.8298 41.3067 71.8783 34.3003C71.9318 34.0864 71.9318 33.0702 71.1296 33.7655ZM63.6953 30.3425C64.0162 29.3263 64.5511 28.4171 65.2998 27.7218C65.7812 27.2939 66.2625 27.187 66.7974 27.5614C67.2787 27.9358 67.1718 28.3636 67.0113 28.845C66.6369 30.1286 65.4068 31.1983 64.3371 31.1983C63.7488 31.1448 63.5349 30.8774 63.6953 30.3425Z" fill="white"/>
    <path d="M68.4024 47.083C68.5094 45.318 68.5629 43.6065 68.6164 41.8415C68.6699 40.8254 68.242 40.451 67.2258 40.6649C66.477 40.8254 65.6748 40.9858 64.926 41.1463C64.4446 41.2532 64.0702 41.4672 63.9633 41.9485C63.8563 42.4299 63.6424 42.4833 63.2145 42.2159C59.3637 39.9696 56.3686 44.5157 56.2081 48.2596C55.8872 49.9711 56.2616 51.5756 57.2243 53.0196C58.5079 55.266 61.7704 54.6776 63.268 52.5383C63.4284 52.3244 63.5889 52.1639 63.8028 51.95C64.1237 52.2174 64.3377 52.4313 64.6051 52.6453C65.1399 53.0731 65.7282 53.394 66.4235 53.2871C67.3328 53.0731 70.1139 52.1639 69.0977 50.5059C68.4559 49.4897 68.349 48.3131 68.4024 47.083ZM63.3215 49.7037C62.8401 50.8268 60.9147 51.2012 60.9147 49.2758C60.8077 48.2596 60.8612 47.5108 61.1286 46.0133C61.2356 45.6389 61.5565 45.318 61.8239 45.0506C62.5192 44.4088 63.375 44.6227 63.6959 45.5319C64.2307 46.976 64.1237 48.3666 63.3215 49.7037Z" fill="white"/>
    <path d="M35.5095 44.4622C36.7931 46.0133 39.0929 45.7458 40.5905 44.7296C41.0718 44.3553 41.4997 43.8204 41.8206 43.2856C41.9276 43.0716 41.8741 42.5368 41.7136 42.3764C39.4673 38.5255 41.3392 32.8562 40.8044 28.2566C40.8044 27.6683 40.6974 27.0265 40.537 26.4382C40.0022 24.6732 38.1302 24.1919 36.2048 24.7267C35.2956 24.8872 34.9212 25.315 34.9212 26.2243C34.8142 31.8401 34.5468 35.8513 34.7073 41.6276C34.6538 42.6438 34.8677 43.6065 35.5095 44.4622Z" fill="white"/>
    <path d="M27.7007 48.634C27.1659 49.1688 27.1124 49.6502 27.5937 50.2385C29.4122 52.5918 28.9843 55.9612 28.0216 57.5658C27.9146 57.7797 27.4868 58.1006 27.2193 58.1006C27.0054 58.1006 26.6845 57.8867 26.5241 57.6192C26.4171 57.4053 26.4171 56.9774 26.4171 56.71C26.4171 55.3194 26.4171 53.8754 26.4171 52.4848C26.4171 52.0569 26.3636 51.6291 26.3101 51.2012C26.0427 49.9176 24.973 49.1153 23.7429 49.2758C23.2615 49.3293 22.7267 49.5432 22.2454 49.5967C21.871 49.6502 21.764 49.8641 21.764 50.2385C21.764 51.3616 21.764 52.4848 21.764 53.6614C21.764 54.6776 21.7105 55.6938 21.764 56.7635C21.764 57.2983 21.871 57.8867 22.0314 58.4215C22.7802 61.3631 26.2566 62.0049 28.8773 60.6678C34.6536 58.5285 34.814 43.7135 27.7007 48.634Z" fill="white"/>
    <path d="M43.8531 46.1737C42.4625 45.4249 40.9115 45.425 39.4674 45.8528C32.8889 47.6178 31.0705 58.0471 38.7721 58.582C40.4301 58.6889 41.9277 57.9936 43.1043 56.8705C43.7461 56.2822 44.281 55.4799 44.7623 54.6776C44.8693 54.4637 45.1367 53.4475 44.067 53.8754C43.4787 54.1428 42.9439 54.4637 42.3555 54.7311C41.3394 55.2125 40.3232 55.3194 39.307 54.7846C39.093 54.6776 38.9326 54.3567 38.8791 54.1428C38.8791 54.0358 39.2 53.8219 39.4139 53.7684C41.4463 53.501 44.174 52.6453 45.1367 50.292C45.832 48.8479 45.2437 46.9225 43.8531 46.1737ZM38.7187 51.4686C38.6652 51.4151 38.3978 51.2547 38.3443 51.0407C38.1838 50.1315 39.2 48.7944 40.1092 48.6875C40.4836 48.634 40.751 48.6875 40.8045 49.1153C41.0185 50.0246 39.8418 51.4151 38.7187 51.4686Z" fill="white"/>
    <path d="M55.4058 43.3391C54.8175 42.9647 54.1222 42.6973 53.4269 43.1786C52.7316 43.7135 52.0898 44.3018 51.5015 44.9436C50.6993 45.5854 50.5923 44.8901 49.2552 44.2483C47.9181 43.8204 46.1531 44.6227 45.5648 45.9063C45.4578 46.1202 45.5648 46.4411 45.6718 46.6551C45.8857 47.1364 46.2601 47.5643 46.3671 48.0457C46.474 48.5805 46.474 49.2758 46.4206 49.7037C46.2601 51.4151 45.5113 55.6404 47.0089 56.4961C47.2228 56.6031 48.7738 56.2822 49.5226 55.9613C50.4853 55.5334 51.1271 54.7311 51.1806 53.5545C51.1806 51.843 51.2341 50.185 51.2876 48.4735C51.2876 48.0457 51.448 47.5643 51.5015 47.1364C51.555 47.1364 51.662 47.1364 51.7154 47.1364C51.8224 47.2969 51.9294 47.4573 51.9829 47.6178C52.2503 48.7409 53.0525 48.8479 54.0687 48.634C54.9245 48.4735 55.4593 47.8317 55.7267 47.0295C55.9407 46.3877 56.1011 45.6924 56.2616 45.0506C56.422 44.3018 56.0476 43.767 55.4058 43.3391Z" fill="white"/>
    <defs>
        <linearGradient id="paint0_linear" x1="90.3809" y1="121.5" x2="0" y2="121.5" gradientUnits="userSpaceOnUse">
            <stop stop-color="#BBDE2C"/>
            <stop offset="1" stop-color="#6DC400"/>
        </linearGradient>
    </defs>
</svg>
