<svg width="139" height="99" viewBox="0 0 139 99" fill="none" xmlns="http://www.w3.org/2000/svg">
    <path d="M136.248 25.7433C139.214 21.3539 139.807 15.7782 137.909 10.6769C135.417 4.15214 129.486 0.118633 122.368 0H121.893H121.419C111.572 1.06769 103.149 6.28753 98.0481 13.6428C94.6078 11.0328 90.0997 9.60925 84.8799 9.60925C78.8296 9.60925 73.0166 11.626 68.3899 15.0664C68.2713 13.9987 68.034 12.931 67.6781 11.7446V11.5074C65.78 5.813 60.7974 2.25402 54.3913 2.25402C52.8491 2.25402 51.1882 2.49129 49.646 2.84719C44.4261 3.91488 41.3417 7.59249 41.2231 12.931C40.274 11.626 39.0877 10.321 37.7827 9.01609C34.5796 6.05027 31.0206 4.50804 27.343 4.50804C25.8008 4.50804 24.2586 4.74531 22.7164 5.33847C22.4791 5.4571 22.1232 5.57574 21.7673 5.69437C13.5816 8.42292 9.66675 13.0496 10.2599 19.693C10.8531 26.0992 8.12453 34.0476 5.39598 41.6401C3.61649 46.7413 1.837 51.8425 0.769301 57.0623C0.532036 58.0114 0.29477 58.8418 0.176138 59.6723V59.7909C-0.298393 62.1635 0.176138 64.6548 1.71836 66.553C3.26059 68.4511 5.51461 69.5188 7.88726 69.6374H8.48043C9.07359 69.6374 9.66675 69.6374 10.1413 69.6374C10.8531 69.6374 11.4462 69.6374 12.0394 69.5188C12.0394 70.2306 12.0394 71.061 12.0394 71.7728V73.9082V77.3485C12.0394 78.0603 12.0394 78.8908 12.0394 79.7212V81.1448C12.158 83.0429 12.3953 84.8224 12.8698 86.4832C14.768 93.6012 21.0555 98.1093 28.8853 98.1093C31.9697 98.1093 34.9355 97.3975 37.7827 96.0925C41.4603 94.6689 44.3075 92.059 46.4429 88.8559C49.1714 90.6354 52.6118 91.8217 56.5267 92.059C56.8826 92.059 57.1198 92.059 57.4757 92.059C62.4583 92.059 67.2036 90.0422 71.2371 86.3646C71.3558 86.4832 71.593 86.6019 71.7117 86.7205C72.898 87.3137 74.0843 87.6696 75.5079 87.6696C77.7619 87.6696 81.5582 86.7205 83.5749 85.7715C87.8457 83.8733 90.5742 80.3143 91.286 76.0436C91.4047 76.2808 91.5233 76.3995 91.6419 76.6367C94.1332 80.7889 98.2854 83.0429 103.268 83.0429C106.708 83.0429 110.267 81.8566 113.114 79.7212C114.301 80.1957 115.724 80.5516 117.385 80.5516C118.097 80.5516 118.809 80.433 119.402 80.3143L119.758 80.1957C123.791 79.2467 129.011 77.1113 130.909 72.2473C132.096 69.4001 131.74 66.0784 130.079 63.3499C129.723 62.7567 129.367 61.8076 129.486 59.6723C129.723 55.7574 129.842 51.7239 129.96 47.809C129.96 46.2668 129.842 44.8432 129.367 43.5382C132.333 40.9283 134.824 37.6066 136.485 33.929C137.553 31.5563 137.553 28.4719 136.366 26.2178C136.485 26.0992 136.366 25.8619 136.248 25.7433Z" fill="#C1272D"/>
    <path d="M46.2056 50.5375C45.8497 48.5208 44.9007 45.4363 44.1889 43.4196C42.4094 37.9625 40.7485 32.3867 39.4436 27.4042C38.02 21.8284 36.715 17.9135 32.8001 14.2359C30.6647 12.2192 27.9362 10.9142 25.2076 11.9819C22.7163 12.931 16.7847 13.9987 17.2592 19.0999C18.4456 31.6749 10.1413 45.9109 7.64999 58.8418C7.41273 59.6723 7.17546 60.5027 7.05683 61.4517C6.9382 62.0449 7.41273 62.6381 8.00589 62.6381C9.42948 62.6381 10.6158 62.7567 11.9208 62.6381C16.4288 62.1635 19.8692 60.1468 21.1741 55.5201C21.1741 55.4015 21.2928 55.1642 21.2928 55.1642C21.7673 54.6897 22.1232 54.0965 22.7163 53.9779C25.3263 53.3847 28.0548 53.0288 30.6647 52.5543C31.3765 52.4357 31.9697 52.9102 32.0883 53.622C32.207 54.571 32.4442 55.4015 32.6815 56.2319C33.2747 58.4859 34.2237 59.1977 36.4777 58.6046C38.8504 58.0114 41.1044 57.0623 43.3584 56.1133C45.8497 55.0456 46.6801 52.9102 46.2056 50.5375ZM29.2411 42.7078C27.6989 43.7755 25.9194 44.1314 23.784 43.6568C24.3772 38.7929 24.8517 34.0476 26.394 29.5395C26.5126 29.5395 26.6312 29.5395 26.8685 29.5395C27.1058 30.1327 27.4617 30.7259 27.5803 31.319C28.2921 34.6408 29.0039 38.0811 29.7157 41.4028C29.7157 41.7587 29.4784 42.4705 29.2411 42.7078Z" fill="white"/>
    <path d="M75.3893 51.368C87.4898 53.3847 98.6413 41.996 98.7599 29.7768C98.2854 12.931 76.6942 13.6428 68.7458 24.557C61.1533 35.1153 62.8142 48.2835 75.3893 51.368ZM77.406 29.4209C77.9992 27.5228 79.3041 25.8619 80.965 24.7942C82.8631 23.6079 84.7612 24.2011 85.3544 26.3365C85.8289 28.2346 85.9476 30.2513 86.1848 32.1495C86.0662 35.2339 85.8289 38.3184 84.1681 41.0469C83.1004 42.8264 80.4905 44.9618 78.1178 42.3519C76.457 39.1488 75.8638 34.1662 77.406 29.4209Z" fill="white"/>
    <path d="M128.774 29.8954C125.096 32.5054 118.572 36.8948 113.826 32.5054C113.114 31.6749 113.233 31.0818 114.301 30.7259C118.453 29.6582 125.452 27.8787 128.774 23.7265C135.18 17.7949 131.503 7.23659 122.368 6.99933C111.216 8.30429 101.014 16.4899 99.9462 28.5905C99.8276 50.1816 123.673 46.6227 130.435 31.0818C130.553 30.6072 130.553 28.3532 128.774 29.8954ZM112.284 22.3029C112.996 20.0489 114.182 18.0322 115.843 16.4899C116.911 15.5409 117.978 15.3036 119.165 16.134C120.232 16.9645 119.995 17.9135 119.639 18.9812C118.809 21.8284 116.08 24.2011 113.708 24.2011C112.403 24.0824 111.928 23.4893 112.284 22.3029Z" fill="white"/>
    <path d="M122.724 59.435C122.961 55.5201 123.08 51.7239 123.198 47.809C123.317 45.555 122.368 44.7245 120.114 45.1991C118.453 45.555 116.673 45.9109 115.013 46.2668C113.945 46.504 113.114 46.9786 112.877 48.0463C112.64 49.1139 112.165 49.2326 111.216 48.6394C102.675 43.6568 96.0314 53.7406 95.6755 62.0449C94.9637 65.8412 95.7941 69.4001 97.9295 72.6032C100.777 77.5858 108.013 76.2808 111.335 71.5355C111.691 71.061 112.047 70.7051 112.521 70.2306C113.233 70.8237 113.708 71.2983 114.301 71.7728C115.487 72.7219 116.792 73.4337 118.334 73.1964C120.351 72.7219 126.52 70.7051 124.266 67.0275C122.842 64.7735 122.605 62.1635 122.724 59.435ZM111.454 65.248C110.386 67.7393 106.115 68.5697 106.115 64.2989C105.878 62.0449 105.997 60.3841 106.59 57.0623C106.827 56.2319 107.539 55.5201 108.132 54.927C109.674 53.5034 111.572 53.9779 112.284 55.9946C113.47 59.1977 113.233 62.2822 111.454 65.248Z" fill="white"/>
    <path d="M49.7646 53.622C52.6118 57.0623 57.713 56.4692 61.0347 54.2152C62.1024 53.3847 63.0515 52.1984 63.7633 51.0121C64.0005 50.5375 63.8819 49.3512 63.526 48.9953C58.5434 40.4538 62.6956 27.8787 61.5092 17.6763C61.5092 16.3713 61.272 14.9477 60.9161 13.6428C59.7298 9.72789 55.5776 8.66019 51.3068 9.84652C49.2901 10.2024 48.4596 11.1515 48.4596 13.1682C48.2224 25.6247 47.6292 34.5221 47.9851 47.3345C47.8665 49.5885 48.341 51.7239 49.7646 53.622Z" fill="white"/>
    <path d="M32.4442 62.8753C31.2579 64.0617 31.1393 65.1294 32.207 66.4343C36.2405 71.6542 35.2914 79.128 33.156 82.687C32.9188 83.1615 31.9697 83.8733 31.3765 83.8733C30.902 83.8733 30.1902 83.3988 29.8343 82.8056C29.597 82.3311 29.597 81.382 29.597 80.7889C29.597 77.7044 29.597 74.5013 29.597 71.4169C29.597 70.4678 29.4784 69.5188 29.3598 68.5697C28.7666 65.7225 26.394 63.943 23.6654 64.2989C22.5977 64.4176 21.4114 64.8921 20.3437 65.0107C19.5133 65.1294 19.276 65.6039 19.276 66.4343C19.276 68.9256 19.276 71.4169 19.276 74.0268C19.276 76.2808 19.1574 78.5349 19.276 80.9075C19.276 82.0938 19.5133 83.3988 19.8692 84.5851C21.53 91.1099 29.2411 92.5335 35.0541 89.5677C47.8665 84.8224 48.2224 51.9611 32.4442 62.8753Z" fill="white"/>
    <path d="M68.2713 57.4182C65.1869 55.7574 61.7465 55.7574 58.5434 56.7064C43.9516 60.6213 39.9181 83.7547 57.0012 84.941C60.6788 85.1783 64.0005 83.6361 66.6104 81.1448C68.034 79.8398 69.2204 78.0603 70.2881 76.2808C70.5253 75.8063 71.1185 73.5523 68.7458 74.5013C67.4409 75.0945 66.2545 75.8063 64.9496 76.3995C62.6956 77.4672 60.4415 77.7044 58.1875 76.5181C57.713 76.2808 57.3571 75.569 57.2385 75.0945C57.2385 74.8572 57.9503 74.3827 58.4248 74.2641C62.9328 73.6709 68.9831 71.7728 71.1185 66.553C72.6607 63.3499 71.3558 59.0791 68.2713 57.4182ZM56.8826 69.1629C56.7639 69.0442 56.1708 68.6883 56.0521 68.2138C55.6962 66.1971 57.9503 63.2312 59.967 62.994C60.7974 62.8753 61.3906 62.994 61.5092 63.943C61.9838 65.9598 59.3739 69.0442 56.8826 69.1629Z" fill="white"/>
    <path d="M93.896 51.1307C92.591 50.3003 91.0488 49.7071 89.5066 50.7748C87.9643 51.9611 86.5407 53.2661 85.2358 54.6897C83.4563 56.1133 83.219 54.571 80.2532 53.1475C77.2874 52.1984 73.3725 53.9779 72.0676 56.8251C71.8303 57.2996 72.0676 58.0114 72.3048 58.4859C72.7794 59.5536 73.6098 60.5027 73.847 61.5704C74.0843 62.7567 74.0843 64.2989 73.9657 65.248C73.6098 69.0442 71.9489 78.4162 75.2706 80.3143C75.7452 80.5516 79.1855 79.8398 80.8464 79.128C82.9818 78.179 84.4054 76.3995 84.524 73.7895C84.524 69.9933 84.6426 66.3157 84.7613 62.5194C84.7613 61.5704 85.1172 60.5027 85.2358 59.5536C85.3544 59.5536 85.5917 59.5536 85.7103 59.5536C85.9476 59.9095 86.1848 60.2654 86.3035 60.6213C86.8966 63.1126 88.6761 63.3499 90.9302 62.8753C92.8283 62.5194 94.0146 61.0958 94.6078 59.3163C95.0823 57.8928 95.4382 56.3505 95.7941 54.9269C96.15 53.2661 95.3196 52.0798 93.896 51.1307Z" fill="white"/>
</svg>
