<svg width="13" height="22" viewBox="0 0 13 22" fill="none" xmlns="http://www.w3.org/2000/svg">
    <path d="M5.62707 15.414C3.99144 15.2434 2.51668 14.8406 1.25406 13.8531C1.09739 13.7302 0.935638 13.6118 0.79267 13.4745C0.240022 12.9438 0.184337 12.3359 0.621638 11.7094C0.995742 11.1733 1.62374 11.0299 2.27649 11.3377C2.40288 11.3974 2.52331 11.4719 2.63866 11.5519C4.99178 13.1687 8.22436 13.2133 10.5863 11.6246C10.8203 11.4451 11.0705 11.2989 11.3604 11.2242C11.9241 11.0794 12.4498 11.2865 12.7523 11.7797C13.0979 12.3429 13.0935 12.8927 12.6676 13.33C12.0145 14.0004 11.2289 14.4855 10.3561 14.824C9.53074 15.144 8.62675 15.3051 7.73204 15.412C7.86705 15.559 7.93069 15.6312 8.0151 15.7161C9.23 16.9367 10.4502 18.1523 11.6611 19.3767C12.0737 19.7939 12.1599 20.3112 11.9327 20.7964C11.6843 21.3267 11.1284 21.6756 10.5832 21.6383C10.2378 21.6144 9.96848 21.4425 9.72917 21.2014C8.81236 20.2789 7.87832 19.3734 6.98007 18.4333C6.71866 18.16 6.59293 18.2117 6.36224 18.449C5.43991 19.3985 4.50255 20.3335 3.55967 21.2631C3.13629 21.6805 2.63247 21.7556 2.14148 21.5172C1.61954 21.2642 1.28742 20.7314 1.31306 20.196C1.33073 19.8339 1.50884 19.5572 1.75743 19.309C2.95973 18.1085 4.15872 16.9049 5.35815 15.7024C5.43748 15.6224 5.5115 15.5375 5.62707 15.414Z" fill="white"/>
    <path d="M6.62374 11.2321C3.70583 11.2221 1.31315 8.80314 1.33017 5.88058C1.34696 2.92576 3.74118 0.544579 6.68783 0.552755C9.64044 0.56071 12.0103 2.97614 11.9955 5.96168C11.9805 8.87827 9.57127 11.2422 6.62374 11.2321ZM9.27561 5.88765C9.27053 4.43654 8.11485 3.2813 6.66661 3.27998C5.20622 3.27843 4.04015 4.45466 4.05142 5.91903C4.06225 7.36462 5.22787 8.51168 6.68009 8.50638C8.12789 8.5013 9.28048 7.33855 9.27561 5.88765Z" fill="white"/>
</svg>
