<svg width="30" height="30" viewBox="0 0 30 30" fill="none" xmlns="http://www.w3.org/2000/svg">
    <path d="M12.3518 11.376C11.5678 11.312 10.9438 11.136 10.4798 10.848C10.1598 10.656 9.99982 10.424 9.99982 10.152C9.99982 9.88 10.0478 9.64 10.1438 9.432C10.5598 8.376 11.2238 7.544 12.1358 6.936C13.0478 6.312 14.1518 6 15.4478 6C17.0318 6 18.3118 6.44 19.2878 7.32C20.2638 8.184 20.7518 9.328 20.7518 10.752C20.7518 11.68 20.5358 12.504 20.1038 13.224C19.6878 13.944 18.9758 14.744 17.9678 15.624C17.3918 16.136 16.9998 16.552 16.7918 16.872C16.5838 17.192 16.4798 17.6 16.4798 18.096V18.72H14.5118C13.9998 18.72 13.7438 18.52 13.7438 18.12V17.808C13.7438 17.04 13.9118 16.368 14.2478 15.792C14.5998 15.216 15.1918 14.584 16.0238 13.896C16.7598 13.288 17.2638 12.76 17.5358 12.312C17.8238 11.848 17.9678 11.328 17.9678 10.752C17.9678 10.048 17.7278 9.472 17.2478 9.024C16.7838 8.576 16.1838 8.352 15.4478 8.352C14.7118 8.352 14.0478 8.624 13.4558 9.168C12.8638 9.712 12.4958 10.448 12.3518 11.376ZM15.1598 23.376C14.6958 23.376 14.2958 23.216 13.9598 22.896C13.6238 22.56 13.4558 22.128 13.4558 21.6C13.4558 21.104 13.5998 20.712 13.8878 20.424C14.1918 20.12 14.5838 19.968 15.0638 19.968C15.5278 19.968 15.9278 20.136 16.2638 20.472C16.5998 20.792 16.7678 21.216 16.7678 21.744C16.7678 22.24 16.6158 22.64 16.3118 22.944C16.0238 23.232 15.6398 23.376 15.1598 23.376Z" fill="white"/>
    <path fill-rule="evenodd" clip-rule="evenodd" d="M15 28C22.1797 28 28 22.1797 28 15C28 7.8203 22.1797 2 15 2C7.8203 2 2 7.8203 2 15C2 22.1797 7.8203 28 15 28ZM15 30C23.2843 30 30 23.2843 30 15C30 6.71573 23.2843 0 15 0C6.71573 0 0 6.71573 0 15C0 23.2843 6.71573 30 15 30Z" fill="white"/>
</svg>
