<svg width="30" height="18" viewBox="0 0 30 18" fill="none" xmlns="http://www.w3.org/2000/svg">
    <path fill-rule="evenodd" clip-rule="evenodd" d="M25.5059 11.454C26.489 12.4138 27.5266 13.3168 28.4083 14.3734C28.7978 14.8429 29.1665 15.3274 29.4486 15.8723C29.8483 16.6469 29.4863 17.4993 28.7917 17.5456L24.4743 17.5436C23.3607 17.636 22.4724 17.1877 21.7255 16.4264C21.1277 15.8175 20.5742 15.1695 19.9994 14.5401C19.7638 14.2828 19.5171 14.0408 19.2225 13.8494C18.6331 13.4669 18.1215 13.584 17.7847 14.1987C17.4416 14.8239 17.3638 15.5162 17.3302 16.213C17.2839 17.2297 16.9766 17.497 15.9554 17.5435C13.7729 17.6464 11.7016 17.3162 9.77745 16.2153C8.08105 15.2447 6.76556 13.8745 5.62057 12.3232C3.39126 9.30269 1.68405 5.98359 0.149671 2.57151C-0.195704 1.80276 0.0568766 1.3901 0.905078 1.3755C2.31355 1.34814 3.72183 1.35008 5.13197 1.37355C5.70441 1.38192 6.08338 1.71026 6.30441 2.25106C7.06644 4.12477 7.99887 5.90745 9.16927 7.55984C9.48096 7.99976 9.79878 8.43969 10.2514 8.74933C10.752 9.09217 11.1332 8.97854 11.3688 8.4208C11.5183 8.06714 11.5837 7.68623 11.6174 7.30745C11.729 6.00433 11.7437 4.70345 11.548 3.40491C11.4278 2.59449 10.9713 2.06985 10.1627 1.91649C9.74999 1.8383 9.81143 1.68475 10.0112 1.44921C10.3583 1.04297 10.6847 0.7901 11.3353 0.7901H16.2147C16.9828 0.941707 17.1534 1.28679 17.2586 2.05972L17.2628 7.4797C17.2544 7.77892 17.4122 8.66685 17.9512 8.86491C18.3825 9.0059 18.6669 8.66082 18.9257 8.3873C20.0939 7.14737 20.9277 5.68203 21.6726 4.1647C22.0032 3.49751 22.2874 2.80462 22.5629 2.11231C22.767 1.59857 23.0872 1.3458 23.6659 1.357L28.362 1.36118C28.5013 1.36118 28.6422 1.36323 28.777 1.3863C29.5684 1.52116 29.7852 1.86157 29.5408 2.63431C29.1557 3.84668 28.4064 4.85701 27.6738 5.872C26.8906 6.95565 26.0531 8.0022 25.2764 9.09227C24.5629 10.0877 24.6196 10.5894 25.5059 11.454Z" fill="white"/>
</svg>
